PathFileType	4	(X/Y/Z)	Patient4_TMGait_0pt2_03_right_06.trc.trc
DataRate	CameraRate	NumFrames	NumMarkers	Units	OrigDataRate	OrigDataStartFrame	OrigNumFrames
46.666666666667	46.666666666667	4	33	mm	46.666666666667	106	       141
Frame#	Time	Sacral			L.Shoulder			Chest			R.Shoulder			Neck			R.ASIS			L.ASIS			R.Thigh.Superior			R.Thigh.Lateral			R.Thigh.Inferior			R.Patella			L.Thigh.Superior			L.Thigh.Lateral			L.Thigh.Inferior			L.Patella			L.Shank.Superior			L.Shank.Lateral			L.Shank.Inferior			R.Shank.Superior			R.Shank.Lateral			R.Shank.Inferior			R.Heel			R.Midfoot.Superior			R.Midfoot.Lateral			R.Toe			L.Heel			L.Midfoot.Lateral			L.Midfoot.Superior			L.Toe			L.Elbow			L.Wrist			R.Elbow			R.Wrist			
		X1	Y1	Z1	X2	Y2	Z2	X3	Y3	Z3	X4	Y4	Z4	X5	Y5	Z5	X6	Y6	Z6	X7	Y7	Z7	X8	Y8	Z8	X9	Y9	Z9	X10	Y10	Z10	X11	Y11	Z11	X12	Y12	Z12	X13	Y13	Z13	X14	Y14	Z14	X15	Y15	Z15	X16	Y16	Z16	X17	Y17	Z17	X18	Y18	Z18	X19	Y19	Z19	X20	Y20	Z20	X21	Y21	Z21	X22	Y22	Z22	X23	Y23	Z23	X24	Y24	Z24	X25	Y25	Z25	X26	Y26	Z26	X27	Y27	Z27	X28	Y28	Z28	X29	Y29	Z29	X30	Y30	Z30	X31	Y31	Z31	X32	Y32	Z32	X33	Y33	Z33	

106	14.960000000000	777.624844736099	991.047940806157	415.440036118249	986.652528823602	1415.385864038949	243.181340571736	1076.400480705357	1339.632863975983	408.127896100596	990.934715516466	1413.807565723339	579.350660070534	958.845144698355	1477.548172161905	402.345183999985	1003.943656310698	925.153385001108	540.726494094143	999.976258607227	942.804325795700	266.255797767583	1080.225581191444	745.027331463511	505.229447112757	1032.817703792241	627.809590141051	580.120989980343	1114.252851877774	580.639298978561	496.704874793202	1125.203207065467	468.279833125844	520.479193467739	1067.778081519398	743.857293845790	308.390353676823	1001.854531903091	613.794796593239	250.662704495860	1091.882203531065	551.707067762033	325.080424921290	1099.998154171886	476.771609451494	335.127032897701	1061.107821025789	400.497110193470	327.746671824712	960.877315685667	297.998393035045	271.050950847487	986.723581465810	183.212145845437	346.338534594431	1046.123063750149	398.910722428917	537.401593334192	930.634432229286	367.841186511885	614.362607371756	904.410624167475	258.225558718323	570.236369927992	694.609916428857	201.115962473191	574.346304361071	870.221505579953	143.808174834363	590.751105608484	764.976902257423	141.443971274603	637.554228856631	939.611329089233	33.658534004735	604.550976393666	838.850831070901	38.930451920520	379.991872975829	914.982620934431	35.549256840566	301.429778297049	998.420841176363	95.214432772491	332.429631589998	1127.230454894413	41.234250251071	305.619878825491	1065.666058442430	1093.197370754448	85.304388695435	1304.002882611199	985.505174832994	91.875386838333	935.915589082613	1060.531613775802	686.454076432977	997.026444048479	807.723414018285	677.036958002005	
107	14.981428571429	776.432330144084	989.619733478634	412.947860124500	987.748625978971	1414.910955120949	243.793378676870	1075.140594946072	1338.714217683871	409.715959409118	987.029078530781	1412.128648832764	580.044895097764	957.849232154366	1476.431406507420	402.940407968530	1002.045452437639	924.375443949398	540.193780889467	1000.279563608266	941.943433836499	265.547995359850	1081.640361497024	747.044847468385	503.758918613748	1036.869008270203	629.004832182029	578.801437674441	1119.030050334328	583.445712100226	495.004765843403	1132.333738457091	471.111785011761	518.928267492277	1068.071725272982	742.755570793911	307.963638885925	1002.215219207523	612.555370079088	250.379259900202	1091.782807019392	550.568452574030	325.400905573468	1099.838088878645	475.555207412051	335.727164352695	1060.191320004295	399.159898120385	328.211011140281	959.252930267695	297.481255271961	271.149339552646	983.590762367043	182.460194426294	346.516922896309	1053.858933819370	400.552088461296	535.960609693197	937.976476700425	368.412359861371	611.891638175777	913.634783906197	258.275272222412	568.129394588854	704.754807843339	198.318832971334	570.140247395458	880.809404027639	144.167715920060	589.342191071025	775.109196183963	140.543185413126	634.932596502160	951.664634599865	34.445018342575	605.320907797630	834.562700828717	38.941005295840	379.898773761011	910.730932763704	35.533528307166	301.353894577105	994.199235962672	95.108417669545	332.482873221611	1122.987989537704	41.105315781246	305.579057647160	1073.851262576411	1096.849082691701	83.249913493056	1318.786786564878	1006.001330992042	92.098702826749	913.294373543922	1062.540302456893	684.864778743305	951.257641245377	804.038783824147	676.784602935446	
108	15.002857142857	775.285643815601	989.038700519966	410.691379187286	989.117872699572	1415.065114469331	244.764537000037	1073.956091137624	1338.454409739682	411.732645984350	983.099728579359	1411.337340834398	580.952006632178	956.972961213017	1476.002994310278	403.787064974414	999.907316909094	924.247816080312	540.248574792814	1000.706583838989	941.663774429215	265.425759533363	1082.049764181402	749.249195414411	503.284861705000	1039.184556547631	630.647051571292	578.465440228990	1122.013858658015	586.366747195016	494.534495445794	1137.552089268798	474.517092084274	518.598236100832	1067.794906575694	741.904708034610	307.972486922570	1001.630211378842	611.832721869257	250.241611231509	1090.503489918098	549.642291923949	325.797222351922	1098.294022491845	474.688645605869	336.371136885771	1058.140253769612	398.259659872092	328.662503305244	956.820998032553	297.126412891636	271.214207117058	980.055690405781	181.942998418783	346.664384172358	1060.450259849525	402.497640278808	535.710945941848	944.856595889587	367.908016159184	610.675476025010	923.718957608250	257.181715909338	567.174871260110	716.881353317717	191.703664599680	567.160226482909	893.689266524486	143.223458095381	588.995893327857	787.885477959191	136.895441081156	633.468002345729	967.267286041352	35.512332300598	606.996448927197	830.247906010366	38.934465668457	379.801224998928	906.455099573423	35.508682771528	301.270061087812	989.941261841180	95.029031823058	332.499678015786	1118.720839350653	41.018729909907	305.544212019274	1081.787855234122	1101.251840608253	81.559492872829	1331.972768208145	1027.272662265027	92.839092843829	891.596376446470	1066.387851689032	683.360299798809	908.702970227934	804.753017872211	675.731882438408	
109	15.024285714286	774.188290173471	989.397616197954	408.672253537196	990.786974452124	1415.906110444918	246.069924514821	1072.865761275463	1338.924988909468	414.156452141255	979.183905333855	1411.535359957007	582.037926036860	956.235486211280	1476.339647671353	404.844533389851	997.506534284625	924.857987330743	540.902859146730	1001.246160558259	942.017563873098	265.905930157706	1081.425370658288	751.654452651889	503.837107226770	1039.690785063707	632.721954661785	579.130755131408	1123.139491766850	589.357349082784	495.339968275421	1140.755916691497	478.466580728815	519.534853785242	1066.857276209157	741.343569989735	308.435013225798	999.989671295347	611.695336348472	250.238070451553	1087.909250425134	548.973111389612	326.257425758756	1095.215499937838	474.221299950773	337.027160551113	1054.834144720157	397.855171740760	329.071590987184	953.489457720275	296.959406746022	271.228342772975	976.069759910526	181.693062067917	346.771795409170	1065.824137192404	404.769682970960	536.694254609988	951.308080818718	366.396447145095	610.814904476487	934.659360626123	255.106553808117	567.475801514505	731.122505939481	181.630213515132	565.593730126622	908.851863592558	141.164789055435	589.819655590059	803.363459480723	130.768783188201	633.292799695087	986.279611208155	36.962232914642	609.611456666068	825.904229565864	38.909700055499	379.701680543977	902.150040646456	35.474752044266	301.180652454217	985.641068758488	94.980908346874	332.478046202070	1114.423964620753	40.980616187187	305.517302063541	1089.458593946792	1106.359197998135	80.321094613809	1343.550868774527	1049.002042197260	94.160303494018	871.065919482359	1071.933821587568	681.925022946287	870.094970481188	809.142777141066	674.037788790705	
